<svg width="52" height="52" viewBox="0 0 52 52" fill="none" xmlns="http://www.w3.org/2000/svg">
<path d="M28.6728 0C31.5977 0.00779981 33.0822 0.0233994 34.3639 0.0597986L34.8683 0.077998C35.4507 0.0987975 36.0253 0.124797 36.7194 0.155996C39.4857 0.285993 41.3732 0.722783 43.0293 1.36497C44.7452 2.02535 46.1907 2.91973 47.6363 4.36269C48.9588 5.66197 49.9818 7.23425 50.6339 8.96978C51.2761 10.6259 51.7129 12.5135 51.8429 15.2824C51.8741 15.974 51.9001 16.5486 51.9209 17.1336L51.9365 17.638C51.9755 18.9171 51.9911 20.4017 51.9963 23.3266L51.9989 25.2662V28.6721C52.0052 30.5685 51.9852 32.4649 51.9391 34.3608L51.9235 34.8652C51.9027 35.4501 51.8767 36.0247 51.8455 36.7163C51.7155 39.4852 51.2735 41.3702 50.6339 43.029C49.9818 44.7645 48.9588 46.3368 47.6363 47.636C46.337 48.9586 44.7648 49.9817 43.0293 50.6338C41.3732 51.276 39.4857 51.7127 36.7194 51.8427L34.8683 51.9207L34.3639 51.9363C33.0822 51.9727 31.5977 51.9909 28.6728 51.9961L26.7333 51.9987H23.3301C21.4329 52.0054 19.5357 51.9855 17.639 51.9389L17.1346 51.9233C16.5174 51.9 15.9004 51.8731 15.2835 51.8427C12.5172 51.7127 10.6297 51.276 8.97103 50.6338C7.23647 49.9813 5.66514 48.9583 4.36666 47.636C3.04318 46.337 2.01926 44.7647 1.36641 43.029C0.724243 41.3728 0.287464 39.4852 0.157471 36.7163L0.0794748 34.8652L0.0664758 34.3608C0.0185499 32.4649 -0.00311801 30.5685 0.0014788 28.6721V23.3266C-0.00571737 21.4302 0.0133504 19.5338 0.0586761 17.638L0.0768751 17.1336C0.0976741 16.5486 0.123673 15.974 0.154871 15.2824C0.284865 12.5135 0.721642 10.6285 1.36381 8.96978C2.01818 7.23354 3.04391 5.6612 4.36926 4.36269C5.66699 3.04075 7.2374 2.01774 8.97103 1.36497C10.6297 0.722783 12.5146 0.285993 15.2835 0.155996C15.9751 0.124797 16.5522 0.0987975 17.1346 0.077998L17.639 0.0623983C19.5348 0.0162046 21.4311 -0.00373012 23.3275 0.00259975L28.6728 0ZM26.0002 12.9997C22.5525 12.9997 19.2461 14.3693 16.8082 16.8072C14.3704 19.2451 13.0008 22.5516 13.0008 25.9994C13.0008 29.4471 14.3704 32.7536 16.8082 35.1915C19.2461 37.6294 22.5525 38.9991 26.0002 38.9991C29.4478 38.9991 32.7542 37.6294 35.1921 35.1915C37.6299 32.7536 38.9995 29.4471 38.9995 25.9994C38.9995 22.5516 37.6299 19.2451 35.1921 16.8072C32.7542 14.3693 29.4478 12.9997 26.0002 12.9997ZM26.0002 18.1996C27.0244 18.1994 28.0387 18.401 28.985 18.7928C29.9314 19.1846 30.7913 19.759 31.5157 20.4832C32.2401 21.2073 32.8147 22.0671 33.2069 23.0133C33.599 23.9596 33.8009 24.9738 33.8011 25.9981C33.8012 27.0224 33.5997 28.0366 33.2079 28.983C32.8161 29.9294 32.2417 30.7894 31.5175 31.5138C30.7934 32.2382 29.9337 32.8128 28.9874 33.205C28.0412 33.5971 27.027 33.799 26.0028 33.7992C23.9342 33.7992 21.9503 32.9774 20.4876 31.5147C19.0249 30.0519 18.2032 28.068 18.2032 25.9994C18.2032 23.9307 19.0249 21.9468 20.4876 20.4841C21.9503 19.0213 23.9342 18.1996 26.0028 18.1996M39.6521 9.09978C38.7902 9.09978 37.9636 9.44218 37.3541 10.0517C36.7446 10.6611 36.4022 11.4878 36.4022 12.3497C36.4022 13.2116 36.7446 14.0383 37.3541 14.6477C37.9636 15.2572 38.7902 15.5996 39.6521 15.5996C40.514 15.5996 41.3406 15.2572 41.9501 14.6477C42.5595 14.0383 42.9019 13.2116 42.9019 12.3497C42.9019 11.4878 42.5595 10.6611 41.9501 10.0517C41.3406 9.44218 40.514 9.09978 39.6521 9.09978Z" fill="#3F4043"/>
</svg>
